<svg width="18" height="20" viewBox="0 0 18 20" fill="none" xmlns="http://www.w3.org/2000/svg">
<path d="M14.8333 9.16666H3.16667C2.24619 9.16666 1.5 9.91285 1.5 10.8333V16.6667C1.5 17.5871 2.24619 18.3333 3.16667 18.3333H14.8333C15.7538 18.3333 16.5 17.5871 16.5 16.6667V10.8333C16.5 9.91285 15.7538 9.16666 14.8333 9.16666Z" stroke="#6D747A" stroke-width="2" stroke-linecap="round" stroke-linejoin="round"/>
<path d="M4.83334 9.16666V5.83332C4.83334 4.72825 5.27233 3.66845 6.05373 2.88705C6.83513 2.10564 7.89494 1.66666 9.00001 1.66666C10.1051 1.66666 11.1649 2.10564 11.9463 2.88705C12.7277 3.66845 13.1667 4.72825 13.1667 5.83332V9.16666" stroke="#6D747A" stroke-width="2" stroke-linecap="round" stroke-linejoin="round"/>
</svg>
